<?xml version="1.0" encoding="UTF-8" standalone="no"?>
<svg
   xmlns:dc="http://purl.org/dc/elements/1.1/"
   xmlns:cc="http://creativecommons.org/ns#"
   xmlns:rdf="http://www.w3.org/1999/02/22-rdf-syntax-ns#"
   xmlns:svg="http://www.w3.org/2000/svg"
   xmlns="http://www.w3.org/2000/svg"
   xmlns:sodipodi="http://sodipodi.sourceforge.net/DTD/sodipodi-0.dtd"
   xmlns:inkscape="http://www.inkscape.org/namespaces/inkscape"
   width="936mm"
   height="290mm"
   viewBox="0 0 936 290"
   version="1.1"
   preserveAspectRatio="xMidYMid meet"
   id="svg8"
   sodipodi:docname="box_v2.svg"
   inkscape:version="0.92.4 (5da689c313, 2019-01-14)">
  <metadata
     id="metadata14">
    <rdf:RDF>
      <cc:Work
         rdf:about="">
        <dc:format>image/svg+xml</dc:format>
        <dc:type
           rdf:resource="http://purl.org/dc/dcmitype/StillImage" />
        <dc:title></dc:title>
      </cc:Work>
    </rdf:RDF>
  </metadata>
  <defs
     id="defs12" />
  <sodipodi:namedview
     pagecolor="#ffffff"
     bordercolor="#666666"
     borderopacity="1"
     objecttolerance="10"
     gridtolerance="10"
     guidetolerance="10"
     inkscape:pageopacity="0"
     inkscape:pageshadow="2"
     inkscape:window-width="1920"
     inkscape:window-height="1027"
     id="namedview10"
     showgrid="false"
     inkscape:zoom="0.3957443"
     inkscape:cx="2232.7362"
     inkscape:cy="488.7639"
     inkscape:window-x="-8"
     inkscape:window-y="-8"
     inkscape:window-maximized="1"
     inkscape:current-layer="svg8" />
  <path
     style="font-size:12px;vector-effect:non-scaling-stroke;fill:none;fill-rule:evenodd;stroke:#ff0000;stroke-width:0.37795275;stroke-linecap:round"
     d="M 20.214844 266.55469 L 20.214844 332.69727 L 42.892578 332.69727 L 42.892578 400.72852 L 20.214844 400.72852 L 20.214844 466.86914 L 114.70312 466.86914 L 114.70312 444.19336 L 182.73438 444.19336 L 182.73438 466.86914 L 250.76562 466.86914 L 250.76562 444.19336 L 318.79688 444.19336 L 318.79688 466.86914 L 386.82812 466.86914 L 386.82812 444.19336 L 454.86133 444.19336 L 461.97852 444.19336 L 461.97852 368.41211 L 787.01758 368.41211 L 787.01758 444.19336 L 795.01758 444.19336 L 863.04883 444.19336 L 863.04883 466.86914 L 931.08008 466.86914 L 931.08008 444.19336 L 999.11328 444.19336 L 999.11328 466.86914 L 1067.1445 466.86914 L 1067.1445 444.19336 L 1135.1758 444.19336 L 1135.1758 466.86914 L 1229.6641 466.86914 L 1229.6641 400.72852 L 1206.9863 400.72852 L 1206.9863 332.69727 L 1229.6641 332.69727 L 1229.6641 266.55469 L 20.214844 266.55469 z "
     transform="scale(0.26458334)"
     id="front_outsideCutPath" />
  <path
     inkscape:connector-curvature="0"
     style="font-size:12px;vector-effect:non-scaling-stroke;fill:none;fill-rule:evenodd;stroke:#ff0000;stroke-width:0.1;stroke-linecap:round"
     id="left_outsideCutPath"
     d="m 23.797138,186.18857 v 17.5 h -6 v 18 h 6 v 17.5 h 22 v -6 h 18 v 6 h 18 v -6 h 18 v 6 h 18.000002 v -6 h 18 v 6 h 18 v -6 h 18 v 6 h 18 v -6 h 18 v 6 h 18 v -6 h 18 v 6 h 18 v -6 h 18 v 6 h 18 4 v -17.5 h 6 v -18 h -6 v -17.5 z" />
  <path
     inkscape:connector-curvature="0"
     style="font-size:12px;vector-effect:non-scaling-stroke;fill:none;fill-rule:evenodd;stroke:#ff0000;stroke-width:0.1;stroke-linecap:round"
     id="right_outsideCutPath"
     d="m 23.462852,129.85428 v 17.5 h -6 v 18 h 6 v 17.5 h 22 v -6 h 18 v 6 h 18 v -6 h 18 v 6 h 17.999998 v -6 h 18 v 6 h 18 v -6 h 18 v 6 h 18 v -6 h 18 v 6 h 18 v -6 h 18 v 6 h 18 v -6 h 18 v 6 h 18 4 v -17.5 h 6 v -18 h -6 v -17.5 z" />
  <path
     style="font-size:12px;vector-effect:non-scaling-stroke;fill:none;fill-rule:evenodd;stroke:#ff0000;stroke-width:0.37795275;stroke-linecap:round"
     d="M 1383.3145 -0.18945312 L 1383.3145 22.488281 L 1311.5039 22.488281 L 1311.5039 105.63672 L 1288.8262 105.63672 L 1288.8262 173.66797 L 1311.5039 173.66797 L 1311.5039 241.70117 L 1288.8262 241.70117 L 1288.8262 309.73242 L 1311.5039 309.73242 L 1311.5039 377.76562 L 1288.8262 377.76562 L 1288.8262 445.79492 L 1311.5039 445.79492 L 1311.5039 513.82617 L 1288.8262 513.82617 L 1288.8262 581.85742 L 1311.5039 581.85742 L 1311.5039 649.88867 L 1288.8262 649.88867 L 1288.8262 717.91992 L 1311.5039 717.91992 L 1311.5039 785.95312 L 1288.8262 785.95312 L 1288.8262 853.98438 L 1311.5039 853.98438 L 1311.5039 922.01562 L 1288.8262 922.01562 L 1288.8262 990.04688 L 1311.5039 990.04688 L 1311.5039 1058.0781 L 1311.5039 1073.1973 L 1383.3145 1073.1973 L 1383.3145 1095.873 L 1451.3457 1095.873 L 1451.3457 1073.1973 L 1519.377 1073.1973 L 1519.377 1095.873 L 1587.4082 1095.873 L 1587.4082 1073.1973 L 1655.4395 1073.1973 L 1655.4395 1095.873 L 1723.4727 1095.873 L 1791.5039 1095.873 L 1859.5352 1095.873 L 1927.5664 1095.873 L 1995.5977 1095.873 L 2063.6289 1095.873 L 2131.6602 1095.873 L 2131.6602 1073.1973 L 2199.6914 1073.1973 L 2199.6914 1095.873 L 2267.7246 1095.873 L 2267.7246 1073.1973 L 2335.7559 1073.1973 L 2335.7559 1095.873 L 2403.7871 1095.873 L 2403.7871 1073.1973 L 2475.5977 1073.1973 L 2475.5977 990.04688 L 2498.2754 990.04688 L 2498.2754 922.01562 L 2475.5977 922.01562 L 2475.5977 853.98438 L 2498.2754 853.98438 L 2498.2754 785.95312 L 2475.5977 785.95312 L 2475.5977 717.91992 L 2498.2754 717.91992 L 2498.2754 649.88867 L 2475.5977 649.88867 L 2475.5977 581.85742 L 2498.2754 581.85742 L 2498.2754 513.82617 L 2475.5977 513.82617 L 2475.5977 445.79492 L 2498.2754 445.79492 L 2498.2754 377.76562 L 2475.5977 377.76562 L 2475.5977 309.73242 L 2498.2754 309.73242 L 2498.2754 241.70117 L 2475.5977 241.70117 L 2475.5977 173.66797 L 2498.2754 173.66797 L 2498.2754 105.63672 L 2475.5977 105.63672 L 2475.5977 37.605469 L 2475.5977 22.488281 L 2403.7871 22.488281 L 2403.7871 -0.18945312 L 2335.7559 -0.18945312 L 2335.7559 22.488281 L 2267.7246 22.488281 L 2267.7246 -0.18945312 L 2199.6914 -0.18945312 L 2199.6914 22.488281 L 2131.6602 22.488281 L 2131.6602 -0.18945312 L 2063.6289 -0.18945312 L 2063.6289 22.488281 L 1995.5977 22.488281 L 1995.5977 -0.18945312 L 1927.5664 -0.18945312 L 1927.5664 22.488281 L 1859.5352 22.488281 L 1859.5352 -0.18945312 L 1791.5039 -0.18945312 L 1791.5039 22.488281 L 1723.4727 22.488281 L 1723.4727 -0.18945312 L 1655.4395 -0.18945312 L 1655.4395 22.488281 L 1587.4082 22.488281 L 1587.4082 -0.18945312 L 1519.377 -0.18945312 L 1519.377 22.488281 L 1451.3457 22.488281 L 1451.3457 -0.18945312 L 1383.3145 -0.18945312 z "
     transform="scale(0.26458334)"
     id="bottom_outsideCutPath" />
  <path
     style="color:#000000;font-style:normal;font-variant:normal;font-weight:normal;font-stretch:normal;font-size:medium;line-height:normal;font-family:sans-serif;font-variant-ligatures:normal;font-variant-position:normal;font-variant-caps:normal;font-variant-numeric:normal;font-variant-alternates:normal;font-feature-settings:normal;text-indent:0;text-align:start;text-decoration:none;text-decoration-line:none;text-decoration-style:solid;text-decoration-color:#000000;letter-spacing:normal;word-spacing:normal;text-transform:none;writing-mode:lr-tb;direction:ltr;text-orientation:mixed;dominant-baseline:auto;baseline-shift:baseline;text-anchor:start;white-space:normal;shape-padding:0;clip-rule:nonzero;display:inline;overflow:visible;visibility:visible;opacity:1;isolation:auto;mix-blend-mode:normal;color-interpolation:sRGB;color-interpolation-filters:linearRGB;solid-color:#000000;solid-opacity:1;vector-effect:non-scaling-stroke;fill:#ff0000;fill-opacity:1;fill-rule:nonzero;stroke:none;stroke-width:0.1;stroke-linecap:butt;stroke-linejoin:miter;stroke-miterlimit:4;stroke-dasharray:none;stroke-dashoffset:0;stroke-opacity:1;color-rendering:auto;image-rendering:auto;shape-rendering:auto;text-rendering:auto;enable-background:accumulate"
     d="m 4.6126549,12.735072 v 0.0508 17.550686 H 10.612656 V 48.234901 H 4.6126549 v 17.60146 H 29.714222 v -5.99997 h 17.898439 v 5.99997 h 18.101561 v -5.99997 h 17.898439 v 5.99997 h 18.101579 v -5.99997 h 17.89845 v 5.99997 h 18.10156 v -5.99997 h 17.89844 v 5.99997 h 18.10156 v -5.99997 h 17.89844 v 5.99997 h 18.10156 v -5.99997 h 17.89844 v 5.99997 h 18.10156 v -5.99997 h 17.89844 v 5.99997 h 18.10156 v -5.99997 h 17.89845 v 5.99997 h 25.10155 v -17.60146 h -6.00001 V 30.336558 h 6.00001 V 12.735092 Z m 0.101563,0.101557 H 324.6127 v 17.398339 h -6.00001 v 18.101463 h 6.00001 v 17.39834 h -24.89845 v -5.99997 H 281.6127 v 5.99997 h -17.89845 v -5.99997 h -18.10156 v 5.99997 h -17.89844 v -5.99997 h -18.10156 v 5.99997 h -17.89844 v -5.99997 h -18.10156 v 5.99997 h -17.89844 v -5.99997 h -18.10156 v 5.99997 h -17.89844 v -5.99997 h -18.10157 v 5.99997 H 83.714221 v -5.99997 H 65.612659 v 5.99997 H 47.714221 v -5.99997 H 29.61266 v 5.99997 H 4.7142179 V 48.336431 H 10.714219 V 30.234968 H 4.7142179 Z"
     id="back_outsideCutPath-6"
     inkscape:connector-curvature="0" />
  <g
     aria-label="STECker"
     style="font-style:normal;font-weight:normal;font-size:10.58333397px;line-height:1.25;font-family:sans-serif;letter-spacing:0px;word-spacing:0px;fill:#000000;fill-opacity:1;fill-rule:evenodd;stroke:none;stroke-width:0.06614583mm;stroke-linecap:round"
     id="text891"
     transform="translate(4.6634359,-168.21412)">
    <path
       d="m 142.69316,203.31223 v 1.01803 q -0.59428,-0.28422 -1.12138,-0.42375 -0.5271,-0.13953 -1.01803,-0.13953 -0.85266,0 -1.31775,0.33073 -0.45992,0.33073 -0.45992,0.94051 0,0.5116 0.30489,0.77515 0.31006,0.25838 1.16789,0.41858 l 0.63045,0.12919 q 1.16789,0.22221 1.72083,0.78548 0.5581,0.55811 0.5581,1.49862 0,1.12138 -0.75447,1.70015 -0.74931,0.57878 -2.20142,0.57878 -0.54777,0 -1.16789,-0.12402 -0.61494,-0.12403 -1.2764,-0.36691 v -1.07487 q 0.63562,0.35657 1.2454,0.53744 0.60978,0.18087 1.19889,0.18087 0.894,0 1.37976,-0.3514 0.48576,-0.3514 0.48576,-1.00253 0,-0.56844 -0.3514,-0.88883 -0.34623,-0.3204 -1.14205,-0.48059 l -0.63562,-0.12403 q -1.16789,-0.23254 -1.68982,-0.72863 -0.52193,-0.4961 -0.52193,-1.37976 0,-1.0232 0.7183,-1.61231 0.72347,-0.58911 1.98955,-0.58911 0.5426,0 1.10587,0.0982 0.56327,0.0982 1.15239,0.29456 z"
       style="stroke-width:0.06614583mm"
       id="path926"
       inkscape:connector-curvature="0" />
    <path
       d="m 143.71635,203.05902 h 6.52673 v 0.87849 h -2.73885 v 6.8368 h -1.04903 v -6.8368 h -2.73885 z"
       style="stroke-width:0.06614583mm"
       id="path928"
       inkscape:connector-curvature="0" />
    <path
       d="m 151.25594,203.05902 h 4.87826 v 0.87849 h -3.83439 v 2.2841 h 3.67419 v 0.8785 h -3.67419 v 2.7957 h 3.9274 v 0.8785 h -4.97127 z"
       style="stroke-width:0.06614583mm"
       id="path930"
       inkscape:connector-curvature="0" />
    <path
       d="m 163.73063,203.65329 v 1.10071 q -0.5271,-0.49092 -1.12654,-0.7338 -0.59428,-0.24288 -1.26608,-0.24288 -1.32291,0 -2.02571,0.81132 -0.7028,0.80615 -0.7028,2.33577 0,1.52446 0.7028,2.33578 0.7028,0.80615 2.02571,0.80615 0.6718,0 1.26608,-0.24288 0.59944,-0.24288 1.12654,-0.7338 v 1.09037 q -0.54777,0.37207 -1.16272,0.5581 -0.60978,0.18604 -1.29191,0.18604 -1.75183,0 -2.75952,-1.0697 -1.00769,-1.07487 -1.00769,-2.93006 0,-1.86035 1.00769,-2.93005 1.00769,-1.07487 2.75952,-1.07487 0.69247,0 1.30225,0.18603 0.61495,0.18087 1.15238,0.54777 z"
       style="stroke-width:0.06614583mm"
       id="path932"
       inkscape:connector-curvature="0" />
    <path
       d="m 165.27576,202.73345 h 0.95601 v 4.74907 l 2.83704,-2.49597 h 1.2144 l -3.06958,2.70784 3.19877,3.07992 h -1.24024 l -2.94039,-2.8267 v 2.8267 h -0.95601 z"
       style="stroke-width:0.06614583mm"
       id="path934"
       inkscape:connector-curvature="0" />
    <path
       d="m 176.02962,207.64272 v 0.46508 h -4.37182 q 0.062,0.98186 0.58911,1.49862 0.53226,0.5116 1.47794,0.5116 0.54777,0 1.05937,-0.13436 0.51677,-0.13436 1.02319,-0.40308 v 0.89917 q -0.51159,0.21704 -1.04903,0.33073 -0.53743,0.11369 -1.09037,0.11369 -1.38493,0 -2.19625,-0.80615 -0.80615,-0.80616 -0.80615,-2.18075 0,-1.4211 0.76481,-2.25309 0.76998,-0.83716 2.07223,-0.83716 1.16788,0 1.84484,0.75448 0.68213,0.7493 0.68213,2.04122 z m -0.95084,-0.27906 q -0.0103,-0.78031 -0.43925,-1.2454 -0.42375,-0.46509 -1.12655,-0.46509 -0.79582,0 -1.27641,0.44959 -0.47542,0.44958 -0.54777,1.26607 z"
       style="stroke-width:0.06614583mm"
       id="path936"
       inkscape:connector-curvature="0" />
    <path
       d="m 180.94406,205.87538 q -0.1602,-0.093 -0.3514,-0.13436 -0.18604,-0.0465 -0.41342,-0.0465 -0.80615,0 -1.24023,0.5271 -0.42891,0.52194 -0.42891,1.50379 v 3.04891 h -0.95602 v -5.78776 h 0.95602 v 0.89917 q 0.29972,-0.5271 0.78031,-0.78032 0.48059,-0.25838 1.16789,-0.25838 0.0982,0 0.21704,0.0155 0.11885,0.0103 0.26355,0.0362 z"
       style="stroke-width:0.06614583mm"
       id="path938"
       inkscape:connector-curvature="0" />
  </g>
  <g
     style="font-size:12px;fill:none;fill-rule:evenodd;stroke:#000000;stroke-width:0.25000001mm;stroke-linecap:round"
     id="g905"
     transform="translate(6.2859089,-157.15304)">
    <g
       aria-label="POWER"
       style="font-style:normal;font-weight:normal;font-size:2.82222247px;line-height:1.25;font-family:sans-serif;letter-spacing:0px;word-spacing:0px;fill:#000000;fill-opacity:1;stroke:none;stroke-width:0.06614583mm"
       id="text895">
      <path
         d="m 40.26647,201.89421 v 0.77308 h 0.350022 q 0.194303,0 0.300412,-0.10059 0.106109,-0.1006 0.106109,-0.28664 0,-0.18465 -0.106109,-0.28525 -0.106109,-0.1006 -0.300412,-0.1006 z m -0.278364,-0.22875 h 0.628386 q 0.345887,0 0.522276,0.1571 0.177767,0.15571 0.177767,0.4575 0,0.30455 -0.177767,0.46027 -0.176389,0.15572 -0.522276,0.15572 H 40.26647 v 0.82682 h -0.278364 z"
         style="stroke-width:0.06614583mm"
         id="path941"
         inkscape:connector-curvature="0" />
      <path
         d="m 42.526453,201.85425 q -0.303168,0 -0.482313,0.226 -0.177767,0.226 -0.177767,0.61598 0,0.38861 0.177767,0.61461 0.179145,0.22599 0.482313,0.22599 0.303168,0 0.479557,-0.22599 0.177767,-0.226 0.177767,-0.61461 0,-0.38998 -0.177767,-0.61598 -0.176389,-0.226 -0.479557,-0.226 z m 0,-0.226 q 0.432704,0 0.691775,0.29077 0.259071,0.28939 0.259071,0.77721 0,0.48645 -0.259071,0.77721 -0.259071,0.28939 -0.691775,0.28939 -0.434082,0 -0.694531,-0.28939 -0.259072,-0.28938 -0.259072,-0.77721 0,-0.48782 0.259072,-0.77721 0.260449,-0.29077 0.694531,-0.29077 z"
         style="stroke-width:0.06614583mm"
         id="path943"
         inkscape:connector-curvature="0" />
      <path
         d="M 43.729481,201.66546 H 44.0106 l 0.432704,1.73908 0.431326,-1.73908 h 0.312815 l 0.432704,1.73908 0.431326,-1.73908 h 0.282498 l -0.516764,2.05741 h -0.350022 l -0.434082,-1.78594 -0.438216,1.78594 h -0.350022 z"
         style="stroke-width:0.06614583mm"
         id="path945"
         inkscape:connector-curvature="0" />
      <path
         d="m 46.701909,201.66546 h 1.300868 v 0.23427 h -1.022504 v 0.60909 h 0.979785 v 0.23426 h -0.979785 v 0.74552 h 1.047309 v 0.23427 h -1.325673 z"
         style="stroke-width:0.06614583mm"
         id="path947"
         inkscape:connector-curvature="0" />
      <path
         d="m 49.463498,202.75824 q 0.08957,0.0303 0.173633,0.12954 0.08544,0.0992 0.170877,0.27285 l 0.282497,0.56224 h -0.299034 l -0.263205,-0.52779 q -0.101975,-0.2067 -0.198438,-0.27423 -0.09508,-0.0675 -0.260449,-0.0675 h -0.303168 v 0.86954 h -0.278364 v -2.05741 h 0.628385 q 0.352778,0 0.526411,0.14745 0.173633,0.14745 0.173633,0.44511 0,0.1943 -0.09095,0.32246 -0.08957,0.12815 -0.261827,0.17776 z m -0.697287,-0.86403 v 0.73036 h 0.350021 q 0.201194,0 0.303169,-0.0923 0.103353,-0.0937 0.103353,-0.27422 0,-0.18053 -0.103353,-0.27148 -0.101975,-0.0923 -0.303169,-0.0923 z"
         style="stroke-width:0.06614583mm"
         id="path949"
         inkscape:connector-curvature="0" />
    </g>
    <g
       aria-label="DATA"
       style="font-style:normal;font-weight:normal;font-size:2.82222247px;line-height:1.25;font-family:sans-serif;letter-spacing:0px;word-spacing:0px;fill:#000000;fill-opacity:1;stroke:none;stroke-width:0.06614583mm"
       id="text899">
      <path
         d="m 53.386339,201.88767 v 1.5999 h 0.336242 q 0.425813,0 0.622873,-0.19293 0.198437,-0.19292 0.198437,-0.60909 0,-0.41341 -0.198437,-0.60496 -0.19706,-0.19292 -0.622873,-0.19292 z m -0.278363,-0.22876 h 0.571885 q 0.598069,0 0.877811,0.24943 0.279742,0.24804 0.279742,0.77721 0,0.53192 -0.28112,0.78135 -0.28112,0.24942 -0.876433,0.24942 h -0.571885 z"
         style="stroke-width:0.06614583mm"
         id="path952"
         inkscape:connector-curvature="0" />
      <path
         d="m 55.917796,201.93314 -0.377583,1.02388 h 0.756543 z m -0.157097,-0.27423 h 0.315571 l 0.784104,2.05741 h -0.289388 l -0.187413,-0.52778 h -0.92742 l -0.187413,0.52778 h -0.293523 z"
         style="stroke-width:0.06614583mm"
         id="path954"
         inkscape:connector-curvature="0" />
      <path
         d="m 56.653668,201.65891 h 1.740462 v 0.23427 h -0.73036 v 1.82314 h -0.279742 v -1.82314 h -0.73036 z"
         style="stroke-width:0.06614583mm"
         id="path956"
         inkscape:connector-curvature="0" />
      <path
         d="m 59.131381,201.93314 -0.377582,1.02388 h 0.756543 z m -0.157096,-0.27423 h 0.31557 l 0.784104,2.05741 h -0.289388 l -0.187413,-0.52778 h -0.92742 l -0.187413,0.52778 h -0.293522 z"
         style="stroke-width:0.06614583mm"
         id="path958"
         inkscape:connector-curvature="0" />
    </g>
  </g>
  <g
     id="g911"
     transform="translate(5.2930742,-164.6053)">
    <rect
       y="192.22144"
       x="254.98892"
       height="30"
       width="40"
       id="rect821"
       style="fill:none;stroke:#ffff00;stroke-width:0.1000125;stroke-linecap:round;stroke-miterlimit:4;stroke-dasharray:none;stroke-opacity:1" />
    <g
       id="g887">
      <rect
         style="fill:none;stroke:#ff0000;stroke-width:0.1000125;stroke-linecap:round;stroke-miterlimit:4;stroke-dasharray:none;stroke-opacity:1"
         id="rect823"
         width="21.5"
         height="13"
         x="272.40698"
         y="195.51151" />
      <rect
         style="fill:none;stroke:#ff0000;stroke-width:0.1000125;stroke-linecap:round;stroke-miterlimit:4;stroke-dasharray:none;stroke-opacity:1"
         id="rect883"
         width="4"
         height="0.5"
         x="280.00967"
         y="212.51273" />
    </g>
  </g>
</svg>
